<svg xmlns="http://www.w3.org/2000/svg" width="28" height="28" fill="none" viewBox="0 0 28 28">
  <path fill="#1E1E1E" d="M16.561 27.152c.905 0 1.545-.778 2.01-1.983l8.223-21.484c.227-.577.365-1.092.365-1.519 0-.816-.515-1.318-1.331-1.318-.427 0-.942.126-1.52.352L2.713 9.473C1.657 9.875.84 10.515.84 11.432c0 1.155.88 1.544 2.085 1.909L11.99 16l2.637 8.953c.377 1.268.766 2.198 1.934 2.198m-4.005-13.058-8.664-2.65c-.201-.063-.264-.113-.264-.2 0-.089.05-.15.239-.226l16.975-6.429c1.004-.377 1.971-.88 2.9-1.306-.828.678-1.858 1.482-2.548 2.172l-8.638 8.64Zm4.206 10.296c-.1 0-.15-.088-.214-.29l-2.65-8.662 8.64-8.639c.677-.678 1.519-1.733 2.184-2.586-.426.954-.929 1.92-1.318 2.938l-6.428 16.975c-.076.189-.126.264-.214.264Z"/>
</svg>
