<svg xmlns="http://www.w3.org/2000/svg" width="24" height="25" fill="none" viewBox="0 0 24 25">
  <path fill="#1E1E1E" fill-rule="evenodd" d="M3.25 9.25a8.75 8.75 0 0 1 17.5 0v4.705l2.277 4.555a1.376 1.376 0 0 1-1.23 1.99h-4.954a5.003 5.003 0 0 1-9.686 0H2.202a1.376 1.376 0 0 1-1.23-1.99l2.278-4.555V9.25ZM9.835 20.5a2.5 2.5 0 0 0 4.33 0h-4.33ZM12 3a6.25 6.25 0 0 0-6.25 6.25v4.705c0 .388-.09.77-.264 1.117L4.024 18h15.953l-1.462-2.928a2.5 2.5 0 0 1-.265-1.117V9.25A6.25 6.25 0 0 0 12 3Z" clip-rule="evenodd"/>
</svg>
