<svg xmlns="http://www.w3.org/2000/svg" width="38" height="40" fill="none" viewBox="0 0 38 40">
  <path fill="#1E1E1E" fill-opacity=".3" d="M17.733 22.5V0h2.534v22.5h-2.534ZM38 21.25c0 4.973-2.002 9.742-5.565 13.258A19.13 19.13 0 0 1 19 40a19.13 19.13 0 0 1-13.435-5.492A18.626 18.626 0 0 1 0 21.25c0-6.775 3.648-12.725 9.12-16l1.85 1.825a16.317 16.317 0 0 0-6.176 5.953 16.037 16.037 0 0 0-2.26 8.222 16.14 16.14 0 0 0 4.822 11.49A16.579 16.579 0 0 0 19 37.5c4.367 0 8.556-1.712 11.644-4.76a16.142 16.142 0 0 0 4.823-11.49c0-6.1-3.395-11.4-8.436-14.175L28.88 5.25a18.814 18.814 0 0 1 6.686 6.82A18.508 18.508 0 0 1 38 21.25Z"/>
</svg>
