<svg xmlns="http://www.w3.org/2000/svg" width="277" height="221" fill="none" viewBox="0 0 277 221">
  <path fill="#537FF1" d="M64.393 54.607A84.874 84.874 0 0 1 92.96 34.19a86.122 86.122 0 0 1 34.54-7.221V72.91a38.754 38.754 0 0 0-15.543 3.25 38.193 38.193 0 0 0-12.855 9.187l-34.71-30.741Z"/>
  <path fill="#FFAE4C" d="M62.069 163.745c-12.986-15.441-19.896-34.959-19.47-54.994.427-20.035 8.162-39.252 21.794-54.144l34.709 30.741c-6.135 6.701-9.615 15.349-9.807 24.365-.192 9.016 2.917 17.799 8.76 24.747L62.07 163.745Z"/>
  <path fill="#8979FF" d="M127.5 26.969c7.124 0 14.219.881 21.119 2.624l-11.616 44.499a38.802 38.802 0 0 0-9.503-1.181V26.969Z"/>
  <path fill="#FF928A" d="M148.619 29.593c14.438 3.646 27.646 10.967 38.296 21.226 10.65 10.26 18.368 23.095 22.376 37.218a82.209 82.209 0 0 1 .461 43.236c-3.708 14.203-11.15 27.195-21.579 37.671l-33.37-32.144a37.439 37.439 0 0 0 9.71-16.952 36.995 36.995 0 0 0-.207-19.456 37.473 37.473 0 0 0-10.069-16.748 38.383 38.383 0 0 0-17.234-9.552l11.616-44.499Z"/>
  <path fill="#3CC3DF" d="M188.173 168.944a85.045 85.045 0 0 1-29.412 19.221 86.177 86.177 0 0 1-34.817 5.793 86.038 86.038 0 0 1-34.202-8.638 84.717 84.717 0 0 1-27.673-21.575l35.987-29.285a38.107 38.107 0 0 0 12.453 9.709 38.713 38.713 0 0 0 15.391 3.887 38.76 38.76 0 0 0 15.667-2.607 38.267 38.267 0 0 0 13.236-8.649l33.37 32.144Z"/>
</svg>
