<svg xmlns="http://www.w3.org/2000/svg" width="32" height="32" fill="none" viewBox="0 0 32 32">
  <path stroke="orange" stroke-linecap="round" stroke-linejoin="round" stroke-width="1.5" d="M26.667 11.447V18c0 5.028 0 7.542-1.562 9.104-1.078 1.078-2.609 1.412-5.105 1.516M5.333 11.447V18c0 5.028 0 7.542 1.562 9.104 1.418 1.418 3.62 1.549 7.771 1.561A1.331 1.331 0 0 0 16 27.334v-4"/>
  <path stroke="orange" stroke-linecap="round" stroke-width="1.5" d="m29.333 14-5.79-5.552C19.986 5.038 18.209 3.334 16 3.334c-2.21 0-3.987 1.704-7.543 5.114L2.667 14m16.001-2v3.334m-5.333 0V12m-1.994 4.506c-.053-.633.494-1.173 1.186-1.173h6.954c.692 0 1.238.54 1.186 1.173l-.143 1.73a6.885 6.885 0 0 1-1.306 3.48l-.468.644c-.44.608-1.184.973-1.98.973h-1.531c-.797 0-1.54-.365-1.982-.973l-.467-.644a6.885 6.885 0 0 1-1.306-3.48l-.143-1.73Z"/>
</svg>
