<svg xmlns="http://www.w3.org/2000/svg" width="32" height="32" fill="none" viewBox="0 0 32 32">
  <path stroke="#000" stroke-width="1.5" d="M6.667 12c0-3.745 0-5.617.898-6.963a5.37 5.37 0 0 1 1.472-1.472c1.346-.898 3.216-.898 6.963-.898s5.617 0 6.963.898a5.37 5.37 0 0 1 1.472 1.472c.898 1.346.898 3.216.898 6.963v8c0 3.745 0 5.617-.898 6.963a5.333 5.333 0 0 1-1.472 1.472c-1.346.898-3.216.898-6.963.898s-5.617 0-6.963-.898a5.333 5.333 0 0 1-1.472-1.472c-.898-1.346-.898-3.216-.898-6.963v-8Z"/>
  <path stroke="#000" stroke-width="1.5" d="M20 20.667a4 4 0 1 1-8 0 4 4 0 0 1 8 0Z"/>
  <path fill="#000" d="M14.667 12.667a1.333 1.333 0 1 1-2.667 0 1.333 1.333 0 0 1 2.667 0Zm-1.334-3.334a1.333 1.333 0 1 0 0-2.666 1.333 1.333 0 0 0 0 2.666ZM20 12.667a1.333 1.333 0 1 1-2.666 0 1.333 1.333 0 0 1 2.666 0Zm-1.333-3.334a1.333 1.333 0 1 0 0-2.666 1.333 1.333 0 0 0 0 2.666Z"/>
</svg>
